<svg width="242" height="50" viewBox="0 0 242 50" fill="none" xmlns="http://www.w3.org/2000/svg">
<path d="M42.2669 22.7524H75.7435L66.4594 32.0366H42.4407C38.0386 32.0366 37.0648 32.2435 34.8803 34.428L31.5761 37.7323H17.6857L27.9545 27.4635C31.9871 23.4337 33.3773 22.7524 42.2669 22.7524Z" fill="#FF0000"/>
<path d="M14.9799 37.7323L26.7244 26.3381H26.7216C31.3499 21.8505 33.2283 21.1692 42.0544 21.1692H77.2548L87.383 11.2534H40.7196C28.9061 11.2534 25.5659 12.3788 18.6373 19.2357L0 37.7323H14.9799Z" fill="#FF0000"/>
<path d="M93.7502 38.504V34.724H89.9282V15.32H93.7502V11.498H105.594V15.32H109.458V23.3H105.594V26.66H109.458V34.724H105.594V38.504H93.7502ZM94.1702 34.304H105.174V27.08H97.5302V22.922H105.174V15.74H94.1702V34.304ZM117.539 38.504V34.724H113.717V22.922H117.539V19.1H129.383V22.922H133.247V34.304H137.069V38.504H132.827V34.724H129.383V38.504H117.539ZM117.959 34.304H128.963V23.3H117.959V34.304ZM140.87 38.504V34.304H144.692V30.482H148.472V26.66H152.336V23.3H140.87V19.1H160.4V23.3H156.536V27.08H152.756V30.902H148.892V34.304H160.4V38.504H140.87ZM168.481 38.504V34.724H164.659V22.922H168.481V19.1H180.325V22.922H184.189V34.304H188.011V38.504H183.769V34.724H180.325V38.504H168.481ZM168.901 34.304H179.905V23.3H168.901V34.304ZM194.813 38.504V34.724H190.991V22.922H194.813V19.1H206.657V22.922H210.521V34.304H214.343V38.504H210.101V34.724H206.657V38.504H194.813ZM195.233 34.304H206.237V23.3H195.233V34.304ZM219.415 38.504V22.922H223.237V19.1H235.081V22.922H238.945V27.08H234.661V23.3H223.657V38.504H219.415Z" fill="black"/>
</svg>
