<svg width="162" height="162" viewBox="0 0 162 162" fill="none" xmlns="http://www.w3.org/2000/svg">
<rect width="162" height="162" rx="81" fill="white"/>
<path d="M39.784 99V71.4H25.96V64.44H60.52V71.4H46.744V99H39.784ZM105.565 99C104.317 99 103.165 98.696 102.109 98.088C101.053 97.448 100.221 96.616 99.6134 95.592C99.0054 94.536 98.7014 93.368 98.7014 92.088V89.16H105.613V91.752C105.613 91.848 105.629 91.928 105.661 91.992C105.725 92.024 105.789 92.04 105.853 92.04H125.965C126.029 92.04 126.093 92.024 126.157 91.992C126.221 91.928 126.253 91.848 126.253 91.752V85.464C126.253 85.4 126.221 85.352 126.157 85.32C126.093 85.256 126.029 85.224 125.965 85.224H105.565C104.317 85.224 103.165 84.92 102.109 84.312C101.053 83.672 100.221 82.824 99.6134 81.768C99.0054 80.712 98.7014 79.56 98.7014 78.312V71.352C98.7014 70.072 99.0054 68.92 99.6134 67.896C100.221 66.84 101.053 66.008 102.109 65.4C103.165 64.76 104.317 64.44 105.565 64.44H126.349C127.597 64.44 128.733 64.76 129.757 65.4C130.813 66.008 131.661 66.84 132.301 67.896C132.941 68.92 133.261 70.072 133.261 71.352V74.28H126.253V71.688C126.253 71.592 126.221 71.528 126.157 71.496C126.093 71.432 126.029 71.4 125.965 71.4H105.853C105.789 71.4 105.725 71.432 105.661 71.496C105.629 71.528 105.613 71.592 105.613 71.688V77.976C105.613 78.04 105.629 78.104 105.661 78.168C105.725 78.2 105.789 78.216 105.853 78.216H126.349C127.597 78.216 128.733 78.536 129.757 79.176C130.813 79.784 131.661 80.616 132.301 81.672C132.941 82.728 133.261 83.88 133.261 85.128V92.088C133.261 93.368 132.941 94.536 132.301 95.592C131.661 96.616 130.813 97.448 129.757 98.088C128.733 98.696 127.597 99 126.349 99H105.565Z" fill="black"/>
<path d="M64.2059 99V64.44H96.0779V71.4H71.2139V78.216H91.2299V85.224H71.2139V99H64.2059Z" fill="#FF0000"/>
</svg>
